<svg width="254" height="607" viewBox="0 0 254 607" fill="none" xmlns="http://www.w3.org/2000/svg">
<path d="M0.800018 606.3C0.400018 606 0.100006 601.9 0.100006 597.3V589H19.1H38.1V414V239L19.4 238.8L0.600006 238.5L0.300018 229.7L0 221H19H38L38.3 149.8L38.5612 87.7346C38.5869 81.6139 39.5441 75.5327 41.4 69.7C44.3 60.2 48.6 51.1 53.4 44C71.7 17.1 104 0 136.7 0H146.2L145.9 8.79999L145.6 17.5L137.5 18.3C133.1 18.7 127.2 19.6 124.5 20.3L119.6 21.5L119.3 121.2L119.1 221H157.1H195.2L194.9 229.8L194.6 238.5L125.4 238.8L56.1 239V423V607H28.8C13.7 607 1.10002 606.7 0.800018 606.3Z" fill="#E60041"/>
<path d="M196.6 116.9C180 111.5 170.1 96.9 170.1 77.5C170.1 52.2 186.3 36 211.6 36C236.9 36 253.1 52.2 253.1 77.5C253.1 97 243.2 111.7 226.2 117C217.8 119.7 204.9 119.6 196.6 116.9Z" fill="#E60041"/>
</svg>
